<svg width="3400" height="2160" viewBox="0 0 3400 2160" fill="none" xmlns="http://www.w3.org/2000/svg">
<g clip-path="url(#clip0_2013_8442)">
<rect width="3400" height="2160" fill="white"/>
<g filter="url(#filter0_f_2013_8442)">
<path d="M2088.77 1481.96C1255.32 1535.86 882.865 506.902 1592.16 69.9067C2088.77 -645.265 1223.37 -1049.73 1095.56 -1531.77C935.798 -2134.32 2141.7 -1389.31 2230.24 -1017.77C2318.78 -646.227 2460.26 -752.107 2584.41 -95.651C2708.56 560.805 2922.22 1428.06 2088.77 1481.96Z" fill="#80CFCC"/>
</g>
<g filter="url(#filter1_f_2013_8442)">
<path d="M1825.73 1836.79C2469 967.948 586.225 1949.62 1128.82 1344.07L1238.36 829.437C1261.43 239.518 889.687 601.042 443.367 583.584C65.4002 568.799 110.765 838.775 -381.279 1518.21C-873.323 2197.65 -1323.79 1838.95 -1890.37 2138.43C-2456.95 2437.92 -1424.67 3051.63 -917.056 3787.66C-409.443 4523.7 104.527 3755.71 28.2917 2947.15C-47.9438 2138.59 1182.46 2705.64 1825.73 1836.79Z" fill="#005A87"/>
</g>
<g filter="url(#filter2_f_2013_8442)">
<path d="M1510.88 2625.47C1592.91 2695.87 1696.28 2752.73 1789.02 2791C1703.61 2763.19 1575.71 2703.75 1510.88 2625.47C1306.55 2450.1 1234.61 2190.71 1789.02 1925.3C2760.28 1460.34 2960.95 1492.44 3013.7 837.72C3066.45 182.995 2971.85 -228.071 3393.83 -312.921C3815.82 -397.771 4544.55 -280.815 4185.63 246.633C3826.71 774.082 3605.4 774.082 3393.83 1555.51C3182.27 2336.94 4260.17 2589.77 3235.59 2653.4C2211.01 2717.04 1619.89 2252.09 1493.18 2452.75C1453.28 2515.92 1468.8 2574.66 1510.88 2625.47Z" fill="#5CBAC4"/>
</g>
<g filter="url(#filter3_f_2013_8442)">
<path d="M-807.329 900.45C-2131.26 1467.26 -1435.54 1725.22 -922.189 1783.35C-615.375 1976.06 47.1638 2228.41 242.816 1696.16C487.381 1030.84 1566.44 900.45 2314.98 -386.981C3063.52 -1674.41 1106.22 -1254.96 717.881 -473.385C329.546 308.185 847.587 191.931 -807.329 900.45Z" fill="#B7D4EF"/>
</g>
</g>
<defs>
<filter id="filter0_f_2013_8442" x="81" y="-2759" width="3623" height="5243" filterUnits="userSpaceOnUse" color-interpolation-filters="sRGB">
<feFlood flood-opacity="0" result="BackgroundImageFix"/>
<feBlend mode="normal" in="SourceGraphic" in2="BackgroundImageFix" result="shape"/>
<feGaussianBlur stdDeviation="500" result="effect1_foregroundBlur_2013_8442"/>
</filter>
<filter id="filter1_f_2013_8442" x="-3055.53" y="-510.207" width="6016.94" height="5594.57" filterUnits="userSpaceOnUse" color-interpolation-filters="sRGB">
<feFlood flood-opacity="0" result="BackgroundImageFix"/>
<feBlend mode="normal" in="SourceGraphic" in2="BackgroundImageFix" result="shape"/>
<feGaussianBlur stdDeviation="500" result="effect1_foregroundBlur_2013_8442"/>
</filter>
<filter id="filter2_f_2013_8442" x="360" y="-1338" width="4922" height="5129" filterUnits="userSpaceOnUse" color-interpolation-filters="sRGB">
<feFlood flood-opacity="0" result="BackgroundImageFix"/>
<feBlend mode="normal" in="SourceGraphic" in2="BackgroundImageFix" result="shape"/>
<feGaussianBlur stdDeviation="500" result="effect1_foregroundBlur_2013_8442"/>
</filter>
<filter id="filter3_f_2013_8442" x="-2570" y="-2211" width="6054" height="5226" filterUnits="userSpaceOnUse" color-interpolation-filters="sRGB">
<feFlood flood-opacity="0" result="BackgroundImageFix"/>
<feBlend mode="normal" in="SourceGraphic" in2="BackgroundImageFix" result="shape"/>
<feGaussianBlur stdDeviation="500" result="effect1_foregroundBlur_2013_8442"/>
</filter>
<clipPath id="clip0_2013_8442">
<rect width="3400" height="2160" fill="white"/>
</clipPath>
</defs>
</svg>
