<svg width="1089" height="613" viewBox="0 0 1089 613" fill="none" xmlns="http://www.w3.org/2000/svg">
<g clip-path="url(#clip0_279_2560)">
<rect width="1089" height="613" fill="#674B9A"/>
<g filter="url(#filter0_f_279_2560)">
<path d="M146.441 27.1523C216.607 12.9857 344.841 6.05236 296.441 91.6524C235.941 198.652 75.4406 191.652 125.441 266.652C175.441 341.652 207.941 477.152 125.441 455.652C42.9406 434.152 -93.0594 327.652 -57.0594 266.652C-21.0594 205.652 -53.0594 -58.8476 3.94057 -72.8476C49.5406 -84.0476 117.941 -10.8477 146.441 27.1523Z" fill="#FFC7FD"/>
<path d="M146.441 27.1523C216.607 12.9857 344.841 6.05236 296.441 91.6524C235.941 198.652 75.4406 191.652 125.441 266.652C175.441 341.652 207.941 477.152 125.441 455.652C42.9406 434.152 -93.0594 327.652 -57.0594 266.652C-21.0594 205.652 -53.0594 -58.8476 3.94057 -72.8476C49.5406 -84.0476 117.941 -10.8477 146.441 27.1523Z" stroke="black"/>
</g>
<g filter="url(#filter1_f_279_2560)">
<path d="M249.257 40.1377C203.414 87.211 140.35 198.522 254.845 267.181C397.964 353.004 492.124 400.558 498.451 489.144C504.777 577.73 671.882 692.941 745.894 591.214C819.906 489.488 894.455 259.418 712.113 197.963C529.77 136.508 553.764 78.5912 530.509 -1.94924C507.255 -82.4897 283.343 -103.435 249.257 40.1377Z" fill="#988FFF"/>
<path d="M249.257 40.1377C203.414 87.211 140.35 198.522 254.845 267.181C397.964 353.004 492.124 400.558 498.451 489.144C504.777 577.73 671.882 692.941 745.894 591.214C819.906 489.488 894.455 259.418 712.113 197.963C529.77 136.508 553.764 78.5912 530.509 -1.94924C507.255 -82.4897 283.343 -103.435 249.257 40.1377Z" stroke="black"/>
</g>
<g filter="url(#filter2_f_279_2560)">
<path d="M745.972 565.791C748.203 508.277 640.657 408.662 525.891 431.118C382.434 459.189 342.738 349.924 286.677 295.987C230.617 242.05 4.85905 398.592 16.3446 508.188C27.8302 617.783 114.221 811.211 268.914 744.285C423.607 677.358 503.586 809.66 565.944 848.435C628.302 887.211 807.976 679.206 745.972 565.791Z" fill="#AB38FF"/>
<path d="M745.972 565.791C748.203 508.277 640.657 408.662 525.891 431.118C382.434 459.189 342.738 349.924 286.677 295.987C230.617 242.05 4.85905 398.592 16.3446 508.188C27.8302 617.783 114.221 811.211 268.914 744.285C423.607 677.358 503.586 809.66 565.944 848.435C628.302 887.211 807.976 679.206 745.972 565.791Z" stroke="black"/>
</g>
<g filter="url(#filter3_f_279_2560)">
<path d="M188.139 11.6231C144.337 4.76442 80.254 19.7679 174.344 134.651C291.957 278.256 341.361 130.601 483.342 270.457C625.322 410.313 600.474 506.796 743.969 374.16C887.463 241.524 953.105 -65.2635 770.552 -45.8377L768.049 -45.5714C587.822 -26.3913 568.417 -24.3262 472.838 -99.2293C396.023 -159.428 251.033 -50.4104 188.139 11.6231Z" fill="#2B96D2"/>
<path d="M770.552 -45.8377C953.105 -65.2635 887.463 241.524 743.969 374.16C600.474 506.796 625.322 410.313 483.342 270.457C341.361 130.601 291.957 278.256 174.344 134.651C80.254 19.7679 144.337 4.76442 188.139 11.6231C251.033 -50.4104 396.023 -159.428 472.838 -99.2293C568.417 -24.3262 587.822 -26.3913 768.049 -45.5714M770.552 -45.8377L768.049 -45.5714M770.552 -45.8377C769.714 -45.7486 768.88 -45.6598 768.049 -45.5714" stroke="black"/>
</g>
<g filter="url(#filter4_f_279_2560)">
<path d="M956.144 -16.5218C1054.35 -36.3362 1233.83 -46.0336 1166.09 73.6921C1081.41 223.349 856.768 213.559 926.751 318.458C996.733 423.358 1042.22 612.877 926.751 582.806C811.28 552.735 620.927 403.777 671.315 318.458C721.702 233.14 676.913 -136.807 756.693 -156.388C820.517 -172.053 916.254 -69.671 956.144 -16.5218Z" fill="#FFC7FD"/>
<path d="M956.144 -16.5218C1054.35 -36.3362 1233.83 -46.0336 1166.09 73.6921C1081.41 223.349 856.768 213.559 926.751 318.458C996.733 423.358 1042.22 612.877 926.751 582.806C811.28 552.735 620.927 403.777 671.315 318.458C721.702 233.14 676.913 -136.807 756.693 -156.388C820.517 -172.053 916.254 -69.671 956.144 -16.5218Z" stroke="black"/>
</g>
<g filter="url(#filter5_f_279_2560)">
<path d="M1105.43 357.593C1120.5 255.015 1113.36 68.2223 964.213 141.673C777.774 233.485 730.625 173.899 806.463 305.129C867.133 410.114 764.593 518.225 705.74 559.157C791.707 668.106 981.991 849.008 1055.39 701.025C1128.79 553.042 1119.33 410.411 1105.43 357.593Z" fill="#1F32D9"/>
<path d="M1105.43 357.593C1120.5 255.015 1113.36 68.2223 964.213 141.673C777.774 233.485 730.625 173.899 806.463 305.129C867.133 410.114 764.593 518.225 705.74 559.157C791.707 668.106 981.991 849.008 1055.39 701.025C1128.79 553.042 1119.33 410.411 1105.43 357.593Z" stroke="black"/>
</g>
</g>
<defs>
<filter id="filter0_f_279_2560" x="-253.5" y="-264.5" width="751.093" height="912.936" filterUnits="userSpaceOnUse" color-interpolation-filters="sRGB">
<feFlood flood-opacity="0" result="BackgroundImageFix"/>
<feBlend mode="normal" in="SourceGraphic" in2="BackgroundImageFix" result="shape"/>
<feGaussianBlur stdDeviation="95" result="effect1_foregroundBlur_279_2560"/>
</filter>
<filter id="filter1_f_279_2560" x="-0.3862" y="-255.637" width="1016.62" height="1077.13" filterUnits="userSpaceOnUse" color-interpolation-filters="sRGB">
<feFlood flood-opacity="0" result="BackgroundImageFix"/>
<feBlend mode="normal" in="SourceGraphic" in2="BackgroundImageFix" result="shape"/>
<feGaussianBlur stdDeviation="95" result="effect1_foregroundBlur_279_2560"/>
</filter>
<filter id="filter2_f_279_2560" x="-174.578" y="94.5037" width="1123.87" height="949.182" filterUnits="userSpaceOnUse" color-interpolation-filters="sRGB">
<feFlood flood-opacity="0" result="BackgroundImageFix"/>
<feBlend mode="normal" in="SourceGraphic" in2="BackgroundImageFix" result="shape"/>
<feGaussianBlur stdDeviation="95" result="effect1_foregroundBlur_279_2560"/>
</filter>
<filter id="filter3_f_279_2560" x="-64.6912" y="-307.28" width="1137.11" height="935.084" filterUnits="userSpaceOnUse" color-interpolation-filters="sRGB">
<feFlood flood-opacity="0" result="BackgroundImageFix"/>
<feBlend mode="normal" in="SourceGraphic" in2="BackgroundImageFix" result="shape"/>
<feGaussianBlur stdDeviation="95" result="effect1_foregroundBlur_279_2560"/>
</filter>
<filter id="filter4_f_279_2560" x="472.5" y="-348.5" width="899.001" height="1125" filterUnits="userSpaceOnUse" color-interpolation-filters="sRGB">
<feFlood flood-opacity="0" result="BackgroundImageFix"/>
<feBlend mode="normal" in="SourceGraphic" in2="BackgroundImageFix" result="shape"/>
<feGaussianBlur stdDeviation="95" result="effect1_foregroundBlur_279_2560"/>
</filter>
<filter id="filter5_f_279_2560" x="515.018" y="-65.5117" width="790.546" height="1012.87" filterUnits="userSpaceOnUse" color-interpolation-filters="sRGB">
<feFlood flood-opacity="0" result="BackgroundImageFix"/>
<feBlend mode="normal" in="SourceGraphic" in2="BackgroundImageFix" result="shape"/>
<feGaussianBlur stdDeviation="95" result="effect1_foregroundBlur_279_2560"/>
</filter>
<clipPath id="clip0_279_2560">
<rect width="1089" height="613" fill="white"/>
</clipPath>
</defs>
</svg>
