<svg width="160" height="548" viewBox="0 0 160 548" fill="none" xmlns="http://www.w3.org/2000/svg">
<rect width="160" height="84" fill="#6C5DD3"/>
<circle cx="94" cy="23" r="9" transform="rotate(-90 94 23)" fill="#9284E4"/>
<circle cx="116.781" cy="23" r="9" transform="rotate(-90 116.781 23)" fill="#9284E4"/>
<circle cx="139.562" cy="23" r="9" transform="rotate(-90 139.562 23)" fill="#ADA0F1"/>
<path d="M13.016 71.608H14.624C15.872 71.608 16.4 71.02 16.4 70.084C16.4 69.112 15.872 68.536 14.624 68.536H13.016V71.608ZM17.516 70.084C17.516 71.356 16.7 72.508 14.624 72.508H13.016V76H11.924V67.636H14.624C16.592 67.636 17.516 68.716 17.516 70.084ZM19.7252 72.424V76H18.6332V69.424H19.7252V70.492C20.0972 69.76 20.8052 69.304 21.8492 69.304V70.432H21.5612C20.5172 70.432 19.7252 70.9 19.7252 72.424ZM22.8698 76V69.424H23.9618V76H22.8698ZM23.4338 68.356C23.0138 68.356 22.6898 68.032 22.6898 67.612C22.6898 67.192 23.0138 66.868 23.4338 66.868C23.8298 66.868 24.1538 67.192 24.1538 67.612C24.1538 68.032 23.8298 68.356 23.4338 68.356ZM35.0749 76V72.28C35.0749 70.936 34.3549 70.252 33.2749 70.252C32.1709 70.252 31.4149 70.96 31.4149 72.376V76H30.3349V72.28C30.3349 70.936 29.6149 70.252 28.5349 70.252C27.4309 70.252 26.6749 70.96 26.6749 72.376V76H25.5829V69.424H26.6749V70.372C27.1069 69.676 27.8869 69.304 28.7509 69.304C29.8309 69.304 30.7309 69.784 31.1629 70.768C31.5469 69.82 32.4829 69.304 33.4909 69.304C34.9909 69.304 36.1549 70.24 36.1549 72.124V76H35.0749ZM37.2982 72.688C37.2982 70.636 38.6542 69.316 40.4182 69.316C41.6422 69.316 42.4822 69.94 42.8662 70.624V69.424H43.9702V76H42.8662V74.776C42.4702 75.484 41.6182 76.108 40.4062 76.108C38.6542 76.108 37.2982 74.728 37.2982 72.688ZM42.8662 72.7C42.8662 71.176 41.8342 70.264 40.6342 70.264C39.4342 70.264 38.4142 71.14 38.4142 72.688C38.4142 74.236 39.4342 75.148 40.6342 75.148C41.8342 75.148 42.8662 74.248 42.8662 72.7ZM45.5756 76V69.424H46.6676V76H45.5756ZM46.1396 68.356C45.7196 68.356 45.3956 68.032 45.3956 67.612C45.3956 67.192 45.7196 66.868 46.1396 66.868C46.5356 66.868 46.8596 67.192 46.8596 67.612C46.8596 68.032 46.5356 68.356 46.1396 68.356ZM49.3807 72.424V76H48.2887V69.424H49.3807V70.492C49.7527 69.76 50.4607 69.304 51.5047 69.304V70.432H51.2167C50.1727 70.432 49.3807 70.9 49.3807 72.424ZM55.3212 70.24C54.2532 70.24 53.3652 70.948 53.2452 72.232H57.3972C57.4093 70.948 56.4492 70.24 55.3212 70.24ZM58.3933 73.972C58.0573 75.172 57.0012 76.108 55.3692 76.108C53.4972 76.108 52.1172 74.788 52.1172 72.7C52.1172 70.624 53.4492 69.316 55.3692 69.316C57.2772 69.316 58.5252 70.66 58.5252 72.46C58.5252 72.7 58.5133 72.892 58.4892 73.12H53.2332C53.3172 74.452 54.2532 75.184 55.3692 75.184C56.3533 75.184 56.9772 74.68 57.2172 73.972H58.3933Z" fill="white"/>
<rect y="117" width="160" height="84" fill="#377ADC"/>
<circle cx="92" cy="137.775" r="9" transform="rotate(-90 92 137.775)" fill="#5F9EED"/>
<circle cx="114.781" cy="137.775" r="9" transform="rotate(-90 114.781 137.775)" fill="#95C5F9"/>
<circle cx="137.562" cy="137.775" r="9" transform="rotate(-90 137.562 137.775)" fill="#364152"/>
<path d="M15.36 189.72C15.36 190.908 14.388 192.084 12.576 192.084C10.896 192.084 9.708 191.148 9.684 189.768H10.848C10.92 190.464 11.412 191.16 12.576 191.16C13.632 191.16 14.256 190.56 14.256 189.768C14.256 187.512 9.732 188.952 9.732 185.844C9.732 184.464 10.848 183.528 12.504 183.528C14.1 183.528 15.144 184.404 15.276 185.676H14.076C14.004 185.112 13.476 184.476 12.456 184.464C11.556 184.44 10.848 184.908 10.848 185.808C10.848 187.968 15.36 186.624 15.36 189.72ZM19.523 186.24C18.455 186.24 17.567 186.948 17.447 188.232H21.599C21.611 186.948 20.651 186.24 19.523 186.24ZM22.595 189.972C22.259 191.172 21.203 192.108 19.571 192.108C17.699 192.108 16.319 190.788 16.319 188.7C16.319 186.624 17.651 185.316 19.571 185.316C21.479 185.316 22.727 186.66 22.727 188.46C22.727 188.7 22.715 188.892 22.691 189.12H17.435C17.519 190.452 18.455 191.184 19.571 191.184C20.555 191.184 21.179 190.68 21.419 189.972H22.595ZM23.5204 188.7C23.5204 186.636 24.8524 185.316 26.7244 185.316C28.3564 185.316 29.4244 186.156 29.7604 187.536H28.5844C28.3564 186.744 27.6964 186.24 26.7244 186.24C25.5244 186.24 24.6364 187.092 24.6364 188.7C24.6364 190.332 25.5244 191.184 26.7244 191.184C27.6964 191.184 28.3444 190.716 28.5844 189.888H29.7604C29.4244 191.196 28.3564 192.108 26.7244 192.108C24.8524 192.108 23.5204 190.788 23.5204 188.7ZM37.2174 188.7C37.2174 190.788 35.7174 192.108 33.8454 192.108C31.9854 192.108 30.5694 190.788 30.5694 188.7C30.5694 186.624 32.0334 185.316 33.8934 185.316C35.7654 185.316 37.2174 186.624 37.2174 188.7ZM31.6854 188.7C31.6854 190.368 32.7054 191.148 33.8454 191.148C34.9854 191.148 36.1014 190.368 36.1014 188.7C36.1014 187.044 35.0094 186.264 33.8814 186.264C32.7294 186.264 31.6854 187.044 31.6854 188.7ZM43.2252 192V188.28C43.2252 186.936 42.4932 186.252 41.3892 186.252C40.2732 186.252 39.5052 186.948 39.5052 188.364V192H38.4132V185.424H39.5052V186.36C39.9372 185.676 40.7292 185.304 41.6172 185.304C43.1412 185.304 44.3052 186.24 44.3052 188.124V192H43.2252ZM45.441 188.688C45.441 186.636 46.797 185.316 48.573 185.316C49.605 185.316 50.553 185.844 51.009 186.6V183.12H52.113V192H51.009V190.764C50.613 191.496 49.761 192.108 48.561 192.108C46.797 192.108 45.441 190.728 45.441 188.688ZM51.009 188.7C51.009 187.176 49.977 186.264 48.777 186.264C47.577 186.264 46.557 187.14 46.557 188.688C46.557 190.236 47.577 191.148 48.777 191.148C49.977 191.148 51.009 190.248 51.009 188.7ZM53.3104 188.688C53.3104 186.636 54.6664 185.316 56.4304 185.316C57.6544 185.316 58.4944 185.94 58.8784 186.624V185.424H59.9824V192H58.8784V190.776C58.4824 191.484 57.6304 192.108 56.4184 192.108C54.6664 192.108 53.3104 190.728 53.3104 188.688ZM58.8784 188.7C58.8784 187.176 57.8464 186.264 56.6464 186.264C55.4464 186.264 54.4264 187.14 54.4264 188.688C54.4264 190.236 55.4464 191.148 56.6464 191.148C57.8464 191.148 58.8784 190.248 58.8784 188.7ZM61.5877 192V185.424H62.6797V192H61.5877ZM62.1517 184.356C61.7317 184.356 61.4077 184.032 61.4077 183.612C61.4077 183.192 61.7317 182.868 62.1517 182.868C62.5477 182.868 62.8717 183.192 62.8717 183.612C62.8717 184.032 62.5477 184.356 62.1517 184.356ZM65.3929 188.424V192H64.3009V185.424H65.3929V186.492C65.7649 185.76 66.4729 185.304 67.5169 185.304V186.432H67.2289C66.1849 186.432 65.3929 186.9 65.3929 188.424ZM71.3334 186.24C70.2654 186.24 69.3774 186.948 69.2574 188.232H73.4094C73.4214 186.948 72.4614 186.24 71.3334 186.24ZM74.4054 189.972C74.0694 191.172 73.0134 192.108 71.3814 192.108C69.5094 192.108 68.1294 190.788 68.1294 188.7C68.1294 186.624 69.4614 185.316 71.3814 185.316C73.2894 185.316 74.5374 186.66 74.5374 188.46C74.5374 188.7 74.5254 188.892 74.5014 189.12H69.2454C69.3294 190.452 70.2654 191.184 71.3814 191.184C72.3654 191.184 72.9894 190.68 73.2294 189.972H74.4054Z" fill="white"/>
<rect x="0.5" y="233.5" width="159" height="82" fill="#FF99B0" stroke="#FF78A4"/>
<circle cx="92" cy="255.188" r="9" transform="rotate(-90 92 255.188)" fill="#FF78A4"/>
<circle cx="114.781" cy="255.188" r="9" transform="rotate(-90 114.781 255.188)" fill="#FFAEB8"/>
<circle cx="137.562" cy="255.188" r="9" transform="rotate(-90 137.562 255.188)" fill="#413949"/>
<path d="M15.54 307L14.868 305.14H11.22L10.548 307H9.396L12.42 298.684H13.68L16.692 307H15.54ZM14.556 304.252L13.044 300.028L11.532 304.252H14.556ZM17.3619 303.7C17.3619 301.636 18.6939 300.316 20.5659 300.316C22.1979 300.316 23.2659 301.156 23.6019 302.536H22.4259C22.1979 301.744 21.5379 301.24 20.5659 301.24C19.3659 301.24 18.4779 302.092 18.4779 303.7C18.4779 305.332 19.3659 306.184 20.5659 306.184C21.5379 306.184 22.1859 305.716 22.4259 304.888H23.6019C23.2659 306.196 22.1979 307.108 20.5659 307.108C18.6939 307.108 17.3619 305.788 17.3619 303.7ZM24.411 303.7C24.411 301.636 25.743 300.316 27.615 300.316C29.247 300.316 30.315 301.156 30.651 302.536H29.475C29.247 301.744 28.587 301.24 27.615 301.24C26.415 301.24 25.527 302.092 25.527 303.7C25.527 305.332 26.415 306.184 27.615 306.184C28.587 306.184 29.235 305.716 29.475 304.888H30.651C30.315 306.196 29.247 307.108 27.615 307.108C25.743 307.108 24.411 305.788 24.411 303.7ZM34.6641 301.24C33.5961 301.24 32.7081 301.948 32.5881 303.232H36.7401C36.7521 301.948 35.7921 301.24 34.6641 301.24ZM37.7361 304.972C37.4001 306.172 36.3441 307.108 34.7121 307.108C32.8401 307.108 31.4601 305.788 31.4601 303.7C31.4601 301.624 32.7921 300.316 34.7121 300.316C36.6201 300.316 37.8681 301.66 37.8681 303.46C37.8681 303.7 37.8561 303.892 37.8321 304.12H32.5761C32.6601 305.452 33.5961 306.184 34.7121 306.184C35.6961 306.184 36.3201 305.68 36.5601 304.972H37.7361ZM43.8815 307V303.28C43.8815 301.936 43.1495 301.252 42.0455 301.252C40.9295 301.252 40.1615 301.948 40.1615 303.364V307H39.0695V300.424H40.1615V301.36C40.5935 300.676 41.3855 300.304 42.2735 300.304C43.7975 300.304 44.9615 301.24 44.9615 303.124V307H43.8815ZM46.7452 305.2V301.324H45.8932V300.424H46.7452V298.768H47.8372V300.424H49.5532V301.324H47.8372V305.2C47.8372 305.848 48.0772 306.076 48.7492 306.076H49.5532V307H48.5692C47.4052 307 46.7452 306.52 46.7452 305.2ZM54.2796 307V299.32H53.1276V298.324H55.3836V307H54.2796Z" fill="white"/>
<rect x="0.5" y="348.5" width="159" height="83" fill="#FFA25F" stroke="#FFCE73"/>
<circle cx="92" cy="370.188" r="9" transform="rotate(-90 92 370.188)" fill="#DB7B45"/>
<circle cx="114.781" cy="370.188" r="9" transform="rotate(-90 114.781 370.188)" fill="#FFCE73"/>
<circle cx="137.562" cy="370.188" r="9" transform="rotate(-90 137.562 370.188)" fill="#414244"/>
<path d="M15.54 422L14.868 420.14H11.22L10.548 422H9.396L12.42 413.684H13.68L16.692 422H15.54ZM14.556 419.252L13.044 415.028L11.532 419.252H14.556ZM17.3619 418.7C17.3619 416.636 18.6939 415.316 20.5659 415.316C22.1979 415.316 23.2659 416.156 23.6019 417.536H22.4259C22.1979 416.744 21.5379 416.24 20.5659 416.24C19.3659 416.24 18.4779 417.092 18.4779 418.7C18.4779 420.332 19.3659 421.184 20.5659 421.184C21.5379 421.184 22.1859 420.716 22.4259 419.888H23.6019C23.2659 421.196 22.1979 422.108 20.5659 422.108C18.6939 422.108 17.3619 420.788 17.3619 418.7ZM24.411 418.7C24.411 416.636 25.743 415.316 27.615 415.316C29.247 415.316 30.315 416.156 30.651 417.536H29.475C29.247 416.744 28.587 416.24 27.615 416.24C26.415 416.24 25.527 417.092 25.527 418.7C25.527 420.332 26.415 421.184 27.615 421.184C28.587 421.184 29.235 420.716 29.475 419.888H30.651C30.315 421.196 29.247 422.108 27.615 422.108C25.743 422.108 24.411 420.788 24.411 418.7ZM34.6641 416.24C33.5961 416.24 32.7081 416.948 32.5881 418.232H36.7401C36.7521 416.948 35.7921 416.24 34.6641 416.24ZM37.7361 419.972C37.4001 421.172 36.3441 422.108 34.7121 422.108C32.8401 422.108 31.4601 420.788 31.4601 418.7C31.4601 416.624 32.7921 415.316 34.7121 415.316C36.6201 415.316 37.8681 416.66 37.8681 418.46C37.8681 418.7 37.8561 418.892 37.8321 419.12H32.5761C32.6601 420.452 33.5961 421.184 34.7121 421.184C35.6961 421.184 36.3201 420.68 36.5601 419.972H37.7361ZM43.8815 422V418.28C43.8815 416.936 43.1495 416.252 42.0455 416.252C40.9295 416.252 40.1615 416.948 40.1615 418.364V422H39.0695V415.424H40.1615V416.36C40.5935 415.676 41.3855 415.304 42.2735 415.304C43.7975 415.304 44.9615 416.24 44.9615 418.124V422H43.8815ZM46.7452 420.2V416.324H45.8932V415.424H46.7452V413.768H47.8372V415.424H49.5532V416.324H47.8372V420.2C47.8372 420.848 48.0772 421.076 48.7492 421.076H49.5532V422H48.5692C47.4052 422 46.7452 421.52 46.7452 420.2ZM53.2836 421.904V421.124C55.5636 419.288 57.7236 417.56 57.7236 415.784C57.7236 414.824 57.3036 414.104 56.1276 414.104C54.9996 414.104 54.4236 414.884 54.3756 415.976H53.3196C53.3916 414.128 54.5556 413.168 56.1156 413.168C57.7476 413.168 58.8036 414.128 58.8036 415.736C58.8036 417.896 56.4756 419.732 54.9276 420.992H59.0556V421.904H53.2836Z" fill="white"/>
<rect y="464" width="160" height="84" fill="#2C323F"/>
<path d="M15.36 534.72C15.36 535.908 14.388 537.084 12.576 537.084C10.896 537.084 9.708 536.148 9.684 534.768H10.848C10.92 535.464 11.412 536.16 12.576 536.16C13.632 536.16 14.256 535.56 14.256 534.768C14.256 532.512 9.732 533.952 9.732 530.844C9.732 529.464 10.848 528.528 12.504 528.528C14.1 528.528 15.144 529.404 15.276 530.676H14.076C14.004 530.112 13.476 529.476 12.456 529.464C11.556 529.44 10.848 529.908 10.848 530.808C10.848 532.968 15.36 531.624 15.36 534.72ZM22.967 533.7C22.967 535.788 21.467 537.108 19.595 537.108C17.735 537.108 16.319 535.788 16.319 533.7C16.319 531.624 17.783 530.316 19.643 530.316C21.515 530.316 22.967 531.624 22.967 533.7ZM17.435 533.7C17.435 535.368 18.455 536.148 19.595 536.148C20.735 536.148 21.851 535.368 21.851 533.7C21.851 532.044 20.759 531.264 19.631 531.264C18.479 531.264 17.435 532.044 17.435 533.7ZM33.6548 537V533.28C33.6548 531.936 32.9348 531.252 31.8548 531.252C30.7508 531.252 29.9948 531.96 29.9948 533.376V537H28.9148V533.28C28.9148 531.936 28.1948 531.252 27.1148 531.252C26.0108 531.252 25.2548 531.96 25.2548 533.376V537H24.1628V530.424H25.2548V531.372C25.6868 530.676 26.4668 530.304 27.3308 530.304C28.4108 530.304 29.3108 530.784 29.7428 531.768C30.1268 530.82 31.0628 530.304 32.0708 530.304C33.5708 530.304 34.7348 531.24 34.7348 533.124V537H33.6548ZM37.378 531.648C37.798 530.916 38.674 530.316 39.838 530.316C41.614 530.316 42.958 531.636 42.958 533.688C42.958 535.728 41.602 537.108 39.838 537.108C38.638 537.108 37.786 536.508 37.378 535.788V537H36.286V528.12H37.378V531.648ZM41.842 533.688C41.842 532.14 40.822 531.264 39.61 531.264C38.422 531.264 37.378 532.176 37.378 533.7C37.378 535.248 38.422 536.148 39.61 536.148C40.822 536.148 41.842 535.236 41.842 533.688ZM45.2474 533.424V537H44.1554V530.424H45.2474V531.492C45.6194 530.76 46.3274 530.304 47.3714 530.304V531.432H47.0834C46.0394 531.432 45.2474 531.9 45.2474 533.424ZM51.188 531.24C50.12 531.24 49.232 531.948 49.112 533.232H53.264C53.276 531.948 52.316 531.24 51.188 531.24ZM54.26 534.972C53.924 536.172 52.868 537.108 51.236 537.108C49.364 537.108 47.984 535.788 47.984 533.7C47.984 531.624 49.316 530.316 51.236 530.316C53.144 530.316 54.392 531.66 54.392 533.46C54.392 533.7 54.38 533.892 54.356 534.12H49.1C49.184 535.452 50.12 536.184 51.236 536.184C52.22 536.184 52.844 535.68 53.084 534.972H54.26Z" fill="#F3F2F0"/>
<circle cx="92" cy="484.775" r="9" transform="rotate(-90 92 484.775)" fill="#20242E"/>
<circle cx="114.781" cy="484.775" r="9" transform="rotate(-90 114.781 484.775)" fill="#363D4E"/>
<circle cx="137.562" cy="484.775" r="9" transform="rotate(-90 137.562 484.775)" fill="#F3F2F0"/>
</svg>
