<svg width="900" height="346" viewBox="0 0 900 346" fill="none" xmlns="http://www.w3.org/2000/svg">
<path d="M214.907 343.119C226.711 343.119 236.279 333.551 236.279 321.749C236.279 309.946 226.711 300.378 214.907 300.378C203.104 300.378 193.535 309.946 193.535 321.749C193.535 333.551 203.104 343.119 214.907 343.119Z" fill="#6C5DD3"/>
<path d="M630.903 175.311C642.707 175.311 652.275 165.743 652.275 153.941C652.275 142.138 642.707 132.57 630.903 132.57C619.1 132.57 609.531 142.138 609.531 153.941C609.531 165.743 619.1 175.311 630.903 175.311Z" fill="#6C5DD3"/>
<path d="M898.812 258.111V300.852C898.812 305.245 898.147 309.472 896.912 313.461C892.757 326.925 882.142 337.539 868.678 341.694C864.688 342.929 860.461 343.594 856.068 343.594V258.111C856.068 234.508 836.928 215.369 813.324 215.369C789.72 215.369 770.58 234.508 770.58 258.111C770.58 281.714 789.72 300.852 813.324 300.852V343.594C766.116 343.594 727.836 305.317 727.836 258.111C727.836 210.905 766.116 172.628 813.324 172.628C822.087 172.628 830.564 173.958 838.519 176.403C844.693 178.303 850.583 180.891 856.068 184.073C856.709 184.429 857.35 184.809 857.968 185.189C869.461 192.265 879.174 201.977 886.25 213.47C889.955 219.501 892.923 226.031 895.036 232.917C897.482 240.872 898.812 249.349 898.812 258.111Z" stroke="#6C5DD3" stroke-miterlimit="10"/>
<path d="M652.275 258.895C652.275 282.497 633.135 301.636 609.531 301.636C601.742 301.636 594.451 299.547 588.159 295.89C575.383 288.529 566.786 274.709 566.786 258.895H609.531C609.531 243.08 600.934 229.261 588.159 221.899C581.866 218.243 574.575 216.153 566.786 216.153C543.182 216.153 524.042 235.292 524.042 258.895C524.042 282.497 543.182 301.636 566.786 301.636V344.378C534.586 344.378 506.565 326.569 491.984 300.306C492.839 298.739 493.647 297.172 494.407 295.581C494.786 294.797 495.143 293.99 495.499 293.183C495.808 292.47 496.116 291.758 496.401 291.046C496.71 290.333 496.995 289.621 497.256 288.885C498.895 284.54 500.177 280.028 501.079 275.35C501.436 273.593 501.721 271.836 501.934 270.055C501.934 270.031 501.934 269.984 501.958 269.96C502.1 268.939 502.195 267.918 502.29 266.873C502.29 266.826 502.314 266.754 502.314 266.707C502.385 265.971 502.433 265.235 502.48 264.475C502.552 263.525 502.599 262.575 502.623 261.625C502.647 260.723 502.67 259.797 502.67 258.895C502.67 257.992 502.647 257.066 502.623 256.164C502.599 255.214 502.552 254.264 502.48 253.314C502.433 252.555 502.385 251.819 502.314 251.082C502.314 251.035 502.29 250.964 502.29 250.916C502.195 249.871 502.1 248.85 501.958 247.829C501.934 247.806 501.934 247.758 501.934 247.734C501.721 245.953 501.436 244.196 501.079 242.439C500.557 239.732 499.892 237.049 499.108 234.437C498.942 233.843 498.776 233.25 498.562 232.68C498.396 232.134 498.23 231.611 498.04 231.089C497.779 230.353 497.517 229.617 497.256 228.904C496.995 228.168 496.71 227.456 496.401 226.744C496.116 226.031 495.808 225.319 495.499 224.606C495.143 223.799 494.786 222.992 494.407 222.208C493.647 220.617 492.839 219.05 491.984 217.507C506.565 191.221 534.586 173.412 566.786 173.412C613.995 173.412 652.275 211.689 652.275 258.895Z" stroke="#6C5DD3" stroke-miterlimit="10"/>
<path d="M321.768 258.895C321.768 273.902 317.897 288.03 311.106 300.283H311.082C309.681 302.847 308.138 305.317 306.475 307.715C304.599 310.398 302.581 312.986 300.396 315.432C291.681 325.286 280.734 333.146 268.338 338.156C264.895 339.557 261.309 340.745 257.652 341.694V295.89C261.689 293.586 265.299 290.595 268.338 287.128C271.164 283.946 273.491 280.36 275.225 276.466C277.671 271.1 279.024 265.163 279.024 258.895C279.024 248.067 274.987 238.189 268.338 230.661C265.299 227.195 261.689 224.203 257.652 221.899C253.948 219.739 249.911 218.124 245.613 217.198C242.597 216.509 239.486 216.153 236.28 216.153H129.42C129.42 208.365 131.51 201.075 135.167 194.782C142.528 182.007 156.349 173.412 172.164 173.412H236.28C243.642 173.412 250.789 174.338 257.605 176.095H257.652C261.309 177.045 264.895 178.232 268.338 179.633C280.734 184.643 291.681 192.503 300.396 202.357C304.148 206.608 307.473 211.214 310.322 216.153C310.583 216.604 310.845 217.055 311.082 217.507H311.106C317.494 229.071 321.317 242.249 321.721 256.306C321.744 257.161 321.768 258.04 321.768 258.895Z" stroke="#6C5DD3" stroke-miterlimit="10"/>
<path d="M492.744 258.895C492.744 298.715 465.483 332.196 428.628 341.694V295.89C441.404 288.529 450 274.709 450 258.895C450 243.08 441.404 229.261 428.628 221.899C422.335 218.243 415.045 216.153 407.256 216.153C403.575 216.153 400.013 216.628 396.594 217.507H396.57C389.066 203.924 377.929 192.622 364.512 184.857C377.097 177.567 391.678 173.412 407.256 173.412C414.641 173.412 421.789 174.338 428.628 176.095C465.483 185.593 492.744 219.074 492.744 258.895Z" stroke="#6C5DD3" stroke-miterlimit="10"/>
<path d="M407.256 258.895C407.256 273.902 403.385 288.03 396.593 300.283H396.57C389.066 313.865 377.928 325.168 364.512 332.932C357.886 336.779 350.715 339.724 343.14 341.694V295.89C355.915 288.529 364.512 274.709 364.512 258.895C364.512 243.08 355.915 229.261 343.14 221.899C341.192 220.736 339.126 219.762 336.989 218.955C335.517 218.385 333.997 217.91 332.454 217.507H332.43C329.01 216.628 325.448 216.153 321.768 216.153C318.087 216.153 314.525 216.628 311.105 217.507H311.081C310.844 217.055 310.583 216.604 310.322 216.153C302.818 203.188 291.989 192.36 279.023 184.857C291.609 177.567 306.19 173.412 321.768 173.412C329.129 173.412 336.277 174.338 343.116 176.095H343.14C350.715 178.066 357.886 181.01 364.512 184.857C377.928 192.622 389.066 203.924 396.57 217.507H396.593C403.385 229.759 407.256 243.888 407.256 258.895Z" stroke="#6C5DD3" stroke-miterlimit="10"/>
<path d="M760.655 132.57C760.394 133.021 760.132 133.472 759.895 133.924H759.871C753.08 146.176 749.209 160.305 749.209 175.312H706.465V260.795C706.465 276.609 715.061 290.429 727.837 297.79V343.594C720.262 341.624 713.09 338.679 706.465 334.832C698.415 330.178 691.196 324.266 685.093 317.332C671.795 302.254 663.721 282.474 663.721 260.795V175.312C663.721 174.955 663.721 174.576 663.744 174.219C663.816 159.853 665.668 145.891 669.111 132.57C672.744 118.418 678.159 104.978 685.093 92.5118C685.568 91.6095 686.09 90.7309 686.589 89.8286H739.14C735.032 94.4115 731.256 99.2792 727.837 104.432C722.043 113.123 717.293 122.573 713.779 132.57H760.655Z" stroke="#6C5DD3" stroke-miterlimit="10"/>
<path d="M285.222 43.929H172.164C139.322 43.929 109.354 56.2765 86.6756 76.6025C84.8946 78.1934 83.1849 79.8081 81.4988 81.494C79.8128 83.1799 78.1981 84.8896 76.607 86.6705C56.2798 109.347 43.9316 139.314 43.9316 172.153C43.9316 204.993 56.2798 234.96 76.607 257.636C78.1981 259.417 79.8128 261.127 81.4988 262.813C83.1849 264.499 84.8946 266.114 86.6756 267.704C106.979 285.917 133.148 297.719 162 299.974C165.348 300.236 168.744 300.378 172.164 300.378V343.119C141.032 343.119 111.823 334.785 86.6756 320.253C73.7099 312.726 61.8128 303.584 51.2693 293.041C40.7258 282.498 31.5833 270.601 24.0556 257.636C9.52259 232.49 1.1875 203.284 1.1875 172.153C1.1875 141.023 9.52259 111.817 24.0556 86.6705C31.5833 73.7056 40.7258 61.8092 51.2693 51.2663C53.8102 48.7255 56.4223 46.2798 59.1057 43.929C67.5833 36.4255 76.8207 29.7531 86.6756 24.0542C111.823 9.52209 141.032 1.1875 172.164 1.1875C186.934 1.1875 201.253 3.06338 214.908 6.57768C230.082 10.4719 244.425 16.4082 257.652 24.0542C267.507 29.7531 276.744 36.4255 285.222 43.929Z" stroke="#6C5DD3" stroke-miterlimit="10"/>
</svg>
