<svg width="900" height="347" viewBox="0 0 900 347" fill="none" xmlns="http://www.w3.org/2000/svg">
<g clip-path="url(#clip0_926_2694)">
<path d="M631.382 176.644C643.216 176.644 652.81 167.055 652.81 155.227C652.81 143.398 643.216 133.81 631.382 133.81C619.547 133.81 609.953 143.398 609.953 155.227C609.953 167.055 619.547 176.644 631.382 176.644Z" fill="#FF99B0"/>
<path d="M900.001 259.624V302.458C900.001 306.86 899.334 311.096 898.096 315.094C893.929 328.587 883.287 339.224 869.787 343.389C865.787 344.626 861.548 345.292 857.144 345.292V259.624C857.144 235.97 837.953 216.789 814.287 216.789C790.62 216.789 771.429 235.97 771.429 259.624C771.429 283.278 790.62 302.458 814.287 302.458V345.292C766.953 345.292 728.572 306.932 728.572 259.624C728.572 212.316 766.953 173.955 814.287 173.955C823.072 173.955 831.572 175.288 839.548 177.739C845.739 179.643 851.644 182.236 857.144 185.425C857.787 185.782 858.429 186.163 859.048 186.544C870.572 193.635 880.31 203.368 887.406 214.886C891.12 220.93 894.096 227.474 896.215 234.375C898.668 242.347 900.001 250.843 900.001 259.624Z" fill="#6C5DD3"/>
<path d="M652.81 260.409C652.81 284.063 633.62 303.243 609.953 303.243C602.143 303.243 594.834 301.149 588.524 297.484C575.715 290.107 567.096 276.258 567.096 260.409H609.953C609.953 244.56 601.334 230.71 588.524 223.333C582.215 219.669 574.905 217.575 567.096 217.575C543.429 217.575 524.239 236.755 524.239 260.409C524.239 284.063 543.429 303.243 567.096 303.243V346.077C534.81 346.077 506.715 328.23 492.096 301.911C492.953 300.34 493.762 298.769 494.524 297.175C494.905 296.39 495.262 295.581 495.62 294.771C495.929 294.058 496.239 293.344 496.524 292.63C496.834 291.916 497.12 291.202 497.381 290.464C499.024 286.109 500.31 281.588 501.215 276.9C501.572 275.139 501.858 273.378 502.072 271.593C502.072 271.57 502.072 271.522 502.096 271.498C502.239 270.475 502.334 269.452 502.429 268.405C502.429 268.357 502.453 268.286 502.453 268.238C502.524 267.5 502.572 266.763 502.62 266.001C502.691 265.049 502.739 264.097 502.762 263.145C502.786 262.241 502.81 261.313 502.81 260.409C502.81 259.505 502.786 258.576 502.762 257.672C502.739 256.72 502.691 255.768 502.62 254.817C502.572 254.055 502.524 253.317 502.453 252.58C502.453 252.532 502.429 252.461 502.429 252.413C502.334 251.366 502.239 250.343 502.096 249.32C502.072 249.296 502.072 249.248 502.072 249.224C501.858 247.44 501.572 245.679 501.215 243.918C500.691 241.205 500.024 238.516 499.239 235.898C499.072 235.303 498.905 234.708 498.691 234.137C498.524 233.59 498.358 233.066 498.167 232.543C497.905 231.805 497.643 231.067 497.381 230.353C497.12 229.616 496.834 228.902 496.524 228.188C496.239 227.474 495.929 226.76 495.62 226.046C495.262 225.237 494.905 224.428 494.524 223.643C493.762 222.048 492.953 220.478 492.096 218.931C506.715 192.588 534.81 174.74 567.096 174.74C614.429 174.74 652.81 213.101 652.81 260.409Z" fill="#6C5DD3"/>
<path d="M321.429 260.409C321.429 275.448 317.548 289.608 310.739 301.887H310.715C309.31 304.457 307.763 306.932 306.096 309.335C304.215 312.024 302.191 314.618 300.001 317.069C291.263 326.945 280.287 334.822 267.858 339.843C264.406 341.247 260.81 342.437 257.144 343.388V297.484C261.191 295.176 264.81 292.178 267.858 288.703C270.691 285.515 273.025 281.921 274.763 278.019C277.215 272.64 278.572 266.691 278.572 260.409C278.572 249.557 274.525 239.658 267.858 232.114C264.81 228.64 261.191 225.642 257.144 223.333C253.429 221.168 249.382 219.55 245.072 218.622C242.048 217.931 238.929 217.575 235.715 217.575H128.572C128.572 209.769 130.667 202.464 134.334 196.157C141.715 183.355 155.572 174.74 171.429 174.74H235.715C243.096 174.74 250.263 175.668 257.096 177.429H257.144C260.81 178.381 264.406 179.571 267.858 180.975C280.287 185.996 291.263 193.873 300.001 203.749C303.763 208.008 307.096 212.625 309.953 217.575C310.215 218.027 310.477 218.479 310.715 218.931H310.739C317.144 230.52 320.977 243.727 321.382 257.815C321.406 258.672 321.429 259.552 321.429 260.409Z" fill="#6C5DD3"/>
<path d="M492.857 260.409C492.857 300.316 465.523 333.87 428.571 343.388V297.484C441.38 290.107 449.999 276.258 449.999 260.409C449.999 244.56 441.38 230.71 428.571 223.333C422.261 219.669 414.952 217.575 407.142 217.575C403.452 217.575 399.88 218.05 396.452 218.931H396.428C388.904 205.319 377.738 193.992 364.285 186.21C376.904 178.905 391.523 174.74 407.142 174.74C414.547 174.74 421.714 175.668 428.571 177.429C465.523 186.948 492.857 220.502 492.857 260.409Z" fill="#6C5DD3"/>
<path d="M407.144 260.409C407.144 275.448 403.263 289.608 396.453 301.887H396.429C388.906 315.499 377.739 326.826 364.287 334.607C357.644 338.462 350.453 341.413 342.858 343.388V297.484C355.668 290.107 364.287 276.258 364.287 260.409C364.287 244.56 355.668 230.71 342.858 223.333C340.906 222.167 338.834 221.192 336.691 220.383C335.215 219.811 333.691 219.336 332.144 218.931H332.12C328.691 218.05 325.12 217.575 321.429 217.575C317.739 217.575 314.167 218.05 310.739 218.931H310.715C310.477 218.479 310.215 218.027 309.953 217.575C302.429 204.581 291.572 193.73 278.572 186.21C291.191 178.905 305.81 174.74 321.429 174.74C328.81 174.74 335.977 175.668 342.834 177.429H342.858C350.453 179.404 357.644 182.355 364.287 186.21C377.739 193.992 388.906 205.319 396.429 218.931H396.453C403.263 231.21 407.144 245.369 407.144 260.409Z" fill="#6C5DD3"/>
<path d="M761.476 133.809C761.214 134.262 760.952 134.714 760.714 135.166H760.69C753.88 147.445 749.999 161.604 749.999 176.644H707.142V262.312C707.142 278.161 715.761 292.011 728.571 299.388V345.292C720.976 343.317 713.785 340.366 707.142 336.511C699.071 331.847 691.833 325.921 685.714 318.973C672.38 303.862 664.285 284.039 664.285 262.312V176.644C664.285 176.287 664.285 175.906 664.309 175.549C664.38 161.152 666.238 147.159 669.69 133.809C673.333 119.626 678.761 106.157 685.714 93.6641C686.19 92.7599 686.714 91.8794 687.214 90.9751H739.904C735.785 95.5679 731.999 100.446 728.571 105.61C722.761 114.32 717.999 123.791 714.476 133.809H761.476Z" fill="#6C5DD3"/>
<path d="M214.286 343.222C226.121 343.222 235.715 333.633 235.715 321.805C235.715 309.976 226.121 300.388 214.286 300.388C202.451 300.388 192.857 309.976 192.857 321.805C192.857 333.633 202.451 343.222 214.286 343.222Z" fill="#FF99B0"/>
<path d="M284.786 42.8343H171.429C138.5 42.8343 108.452 55.2087 85.7143 75.5787C83.9286 77.1731 82.2143 78.7913 80.5238 80.4809C78.8333 82.1705 77.2143 83.8838 75.619 85.6686C55.2381 108.395 42.8571 138.426 42.8571 171.337C42.8571 204.248 55.2381 234.28 75.619 257.006C77.2143 258.791 78.8333 260.504 80.5238 262.194C82.2143 263.883 83.9286 265.501 85.7143 267.096C106.071 285.348 132.31 297.175 161.238 299.436C164.595 299.697 168 299.84 171.429 299.84V342.674C140.214 342.674 110.929 334.322 85.7143 319.758C72.7143 312.214 60.7857 303.053 50.2143 292.487C39.6429 281.921 30.4762 269.999 22.9286 257.006C8.35714 231.805 0 202.535 0 171.337C0 140.14 8.35714 110.869 22.9286 85.6686C30.4762 72.6755 39.6429 60.7533 50.2143 50.1875C52.7619 47.6413 55.381 45.1902 58.0714 42.8343C66.5714 35.3145 75.8333 28.6276 85.7143 22.9164C110.929 8.35269 140.214 0 171.429 0C186.238 0 200.595 1.87995 214.286 5.40188C229.5 9.30456 243.881 15.2538 257.143 22.9164C267.024 28.6276 276.286 35.3145 284.786 42.8343Z" fill="#6C5DD3"/>
</g>
<defs>
<clipPath id="clip0_926_2694">
<rect width="900" height="346.077" fill="white"/>
</clipPath>
</defs>
</svg>
