<svg width="283" height="80" viewBox="0 0 283 80" fill="none" xmlns="http://www.w3.org/2000/svg">
<path fill-rule="evenodd" clip-rule="evenodd" d="M159.368 73.2212V0H160.809V73.2212H159.368ZM98.2711 29.6016L112.623 72.5H114.762C115.654 64.4329 121.518 60.2729 127.571 59.9859V50.5288H129.012V59.9906C135.218 60.3258 141.226 64.7296 141.882 73.1652L140.445 73.2771C139.857 65.7018 134.533 61.7555 129.012 61.4337V69.8558H127.571V61.4319C122.038 61.7408 116.704 65.69 116.138 73.2749L116.088 73.9423H111.586L98.2727 34.1484L90.6546 56.9712H101.442V58.4135H90.1732L85.0058 73.8942H0V72.4519H83.968L88.654 58.4135H71.9508V56.9712H89.1354L98.2711 29.6016ZM148.176 55.0962V43.8942H149.617V55.0962H148.176ZM165.516 55.3846V52.3077H166.957V55.3846H165.516ZM147.702 60H154.901V61.4423H147.788C144.809 61.8127 143.156 63.9109 142.884 66.2019H147.744V67.6442H142.895C143.189 69.8424 144.769 71.9241 147.81 72.5H154.901V73.9423H147.679L147.616 73.9307C143.483 73.1811 141.423 70.0517 141.403 66.9276C141.383 63.7041 143.544 60.4928 147.659 60.005L147.702 60ZM170.367 67.2596C170.367 62.53 174.01 60 177.331 60C181.445 60 184.248 63.5169 184.248 67.2596V72.4038H283V73.8462H182.807V71.2385C181.516 72.8272 179.496 73.8462 177.331 73.8462C173.66 73.8462 170.367 70.7745 170.367 67.2596ZM182.807 67.2596C182.807 64.1754 180.518 61.4423 177.331 61.4423C174.697 61.4423 171.808 63.4315 171.808 67.2596C171.808 69.8986 174.374 72.4038 177.331 72.4038C180.293 72.4038 182.807 70.0387 182.807 67.2596ZM165.516 80V60.7212H166.957V80H165.516Z" fill="white" fill-opacity="0.7"/>
</svg>
