<svg width="2903" height="807" viewBox="0 0 2903 807" fill="none" xmlns="http://www.w3.org/2000/svg">
<path class="path1" d="M0 750H879.5" stroke="#E3E3E3" stroke-width="5"/>
<path class="path2" d="M873 754.5L1016.5 325L1160.5 755H1195" stroke="#E3E3E3" stroke-width="5"/>
<path class="path3" d="M1195 762.313C1208 588.313 1449.5 588.813 1463 762.313" stroke="#E3E3E3" stroke-width="5"/>
<path class="path4" d="M1605.01 625H1530.51C1491.84 629.579 1471.81 659.4 1472 689.5C1472.19 718.558 1491.21 747.878 1530.51 755H1605.01" stroke="#E3E3E3" stroke-width="5"/>
<path class="path5" d="M1472 690H1530.51" stroke="#E3E3E3" stroke-width="5"/>
<path class="path6" d="M1647 0V761.5" stroke="#E3E3E3" stroke-width="5"/>
<path class="path7" d="M1696 606V806.5" stroke="#E3E3E3" stroke-width="5"/>
<path class="path8" d="M1696 540V572" stroke="#E3E3E3" stroke-width="5"/>
<path class="path9" d="M1738 694C1738 649.5 1772 626 1803 626C1841 626 1867.5 658.5 1867.5 694C1867.5 727.5 1837.5 755 1803 755C1768.5 755 1738 726 1738 694Z" stroke="#E3E3E3" stroke-width="5"/>
<path class="path10" d="M1867 701V762" stroke="#E3E3E3" stroke-width="5"/>
<path class="path11" d="M1867 755H2902.5" stroke="#E3E3E3" stroke-width="5"/>
<path class="path12" d="M738 572H1045" stroke="#E3E3E3" stroke-width="5"/>
<path class="path13" d="M1539 455V571.5" stroke="#E3E3E3" stroke-width="5"/>
<path class="path14" d="M1329 524V725" stroke="#E3E3E3" stroke-width="5"/>
</svg>
