<svg width="2368" height="832" viewBox="0 0 2368 832" fill="none" xmlns="http://www.w3.org/2000/svg">
<path fill-rule="evenodd" clip-rule="evenodd" d="M1454.5 761.5V0H1469.5V761.5H1454.5ZM818.492 307.857L967.898 754H990.163C999.451 670.102 1060.49 626.838 1123.5 623.853V525.5H1138.5V623.902C1203.11 627.388 1265.65 673.188 1272.48 760.918L1257.52 762.082C1251.39 683.298 1195.97 642.257 1138.5 638.91V726.5H1123.5V638.892C1065.9 642.104 1010.37 683.176 1004.48 762.059L1003.96 769H957.102L818.508 355.143L739.205 592.5H851.5V607.5H734.193L680.402 768.5H0V753.5H669.598L718.378 607.5H544.5V592.5H723.39L818.492 307.857ZM1338 573V456.5H1353V573H1338ZM1518.5 576V544H1533.5V576H1518.5ZM1333.06 624H1408V639H1333.95C1302.95 642.852 1285.74 664.673 1282.91 688.5H1333.5V703.5H1283.02C1286.08 726.361 1302.53 748.011 1334.19 754H1408V769H1332.83L1332.16 768.88C1289.15 761.083 1267.7 728.538 1267.49 696.047C1267.28 662.523 1289.78 629.125 1332.62 624.052L1333.06 624ZM1569 699.5C1569 650.312 1606.93 624 1641.5 624C1684.33 624 1713.5 660.576 1713.5 699.5V753H2368V768H1698.5V740.881C1685.06 757.403 1664.04 768 1641.5 768C1603.28 768 1569 736.055 1569 699.5ZM1698.5 699.5C1698.5 667.424 1674.67 639 1641.5 639C1614.07 639 1584 659.688 1584 699.5C1584 726.945 1610.72 753 1641.5 753C1672.33 753 1698.5 728.402 1698.5 699.5ZM1518.5 832V631.5H1533.5V832H1518.5Z" fill="#E3E3E3"/>
</svg>
