<svg xmlns="http://www.w3.org/2000/svg" width="2903" height="807" fill="none" viewBox="0 0 2903 807"><path stroke="#E3E3E3" stroke-width="5" d="M0 750H879.5" class="path1"/><path stroke="#E3E3E3" stroke-width="5" d="M873 754.5L1016.5 325L1160.5 755H1195" class="path2"/><path stroke="#E3E3E3" stroke-width="5" d="M1195 762.313C1208 588.313 1449.5 588.813 1463 762.313" class="path3"/><path stroke="#E3E3E3" stroke-width="5" d="M1605.01 625H1530.51C1491.84 629.579 1471.81 659.4 1472 689.5C1472.19 718.558 1491.21 747.878 1530.51 755H1605.01" class="path4"/><path stroke="#E3E3E3" stroke-width="5" d="M1472 690H1530.51" class="path5"/><path stroke="#E3E3E3" stroke-width="5" d="M1647 0V761.5" class="path6"/><path stroke="#E3E3E3" stroke-width="5" d="M1696 606V806.5" class="path7"/><path stroke="#E3E3E3" stroke-width="5" d="M1696 540V572" class="path8"/><path stroke="#E3E3E3" stroke-width="5" d="M1738 694C1738 649.5 1772 626 1803 626C1841 626 1867.5 658.5 1867.5 694C1867.5 727.5 1837.5 755 1803 755C1768.5 755 1738 726 1738 694Z" class="path9"/><path stroke="#E3E3E3" stroke-width="5" d="M1867 701V762" class="path10"/><path stroke="#E3E3E3" stroke-width="5" d="M1867 755H2902.5" class="path11"/><path stroke="#E3E3E3" stroke-width="5" d="M738 572H1045" class="path12"/><path stroke="#E3E3E3" stroke-width="5" d="M1539 455V571.5" class="path13"/><path stroke="#E3E3E3" stroke-width="5" d="M1329 524V725" class="path14"/></svg>