<svg width="2946" height="525" viewBox="0 0 2946 525" fill="none" xmlns="http://www.w3.org/2000/svg">
<path fill-rule="evenodd" clip-rule="evenodd" d="M1659 453.643V0H1674V453.643H1659ZM1022.99 0L1172.4 446.143H1194.66C1203.95 362.245 1264.99 318.981 1328 315.996V217.643H1343V316.045C1407.61 319.531 1470.15 365.33 1476.98 453.061L1462.02 454.225C1455.89 375.441 1400.47 334.4 1343 331.053V418.643H1328V331.035C1270.4 334.247 1214.87 375.319 1208.98 454.202L1208.46 461.143H1161.6L1023.01 47.2858L943.705 284.643H1056V299.643H938.693L884.902 460.643H0V445.643H874.098L922.878 299.643H749V284.643H927.89L1022.99 0ZM1542.5 265.143V148.643H1557.5V265.143H1542.5ZM1723 268.143V236.143H1738V268.143H1723ZM1537.56 316.143H1612.5V331.143H1538.45C1507.45 334.995 1490.24 356.816 1487.41 380.643H1538V395.643H1487.52C1490.58 418.504 1507.03 440.154 1538.69 446.143H1612.5V461.143H1537.33L1536.66 461.023C1493.65 453.226 1472.2 420.681 1471.99 388.19C1471.78 354.666 1494.28 321.268 1537.12 316.195L1537.56 316.143ZM1773.5 391.643C1773.5 342.455 1811.43 316.143 1846 316.143C1888.83 316.143 1918 352.719 1918 391.643V445.143H2946V460.143H1903V433.023C1889.56 449.545 1868.54 460.143 1846 460.143C1807.78 460.143 1773.5 428.198 1773.5 391.643ZM1903 391.643C1903 359.567 1879.17 331.143 1846 331.143C1818.57 331.143 1788.5 351.831 1788.5 391.643C1788.5 419.088 1815.22 445.143 1846 445.143C1876.83 445.143 1903 420.545 1903 391.643ZM1723 524.143V323.643H1738V524.143H1723Z" fill="#E3E3E3"/>
</svg>
